<?xml version="1.0" encoding="UTF-8"?>
<svg viewBox="0 0 4963 1323" xmlns="http://www.w3.org/2000/svg">
<path d="m794 1018v-700h50l452 619v-619h46v700h-40l-462-632v632h-46zm910.87 10c-45.34 0-86.67-11.33-124-34-37.34-22.667-67-53.333-89-92-21.34-38.667-32-82-32-130s10.33-91.333 31-130c21.33-38.667 50.33-69.333 87-92 36.66-22.667 77.66-34 123-34 42.66 0 80.66 11.333 114 34 33.33 22.667 59.66 53 79 91 20 37.333 30 79 30 125v18h-419c2 38 12 72.333 30 103 18 30 41.66 54 71 72 30 18 63 27 99 27 28 0 55.66-4.333 83-13 27.33-9.333 50.66-21.667 70-37l26 35c-26.67 19.333-55 33.67-85 43s-61.34 14-94 14zm-198-286h370c-3.34-34-13-64.667-29-92-16-28-36.67-50.333-62-67-25.34-16.667-54-25-86-25-34 0-65 8-93 24-27.34 16-50 38-68 66-17.34 27.333-28 58.667-32 94zm700.83 286c-36.67 0-69.34-7.67-98-23-28-16-50-38-66-66-16-28.667-24-61.667-24-99v-314h44v302c0 48.667 13.66 87.333 41 116 27.33 28.667 65 43 113 43 33.33 0 63.33-8 90-24 26.66-16 47.66-38.333 63-67v-370h44v492h-44v-68c-38.67 52-93 78-163 78zm403.29-10v-700l44-11v711h-44zm431.69 10c-45.33 0-86.67-11.33-124-34-37.33-22.667-67-53.333-89-92-21.33-38.667-32-82-32-130s10.33-91.333 31-130c21.33-38.667 50.33-69.333 87-92s77.67-34 123-34c42.67 0 80.67 11.333 114 34s59.67 53 79 91c20 37.333 30 79 30 125v18h-419c2 38 12 72.333 30 103 18 30 41.67 54 71 72 30 18 63 27 99 27 28 0 55.67-4.333 83-13 27.33-9.333 50.67-21.667 70-37l26 35c-26.67 19.333-55 33.67-85 43s-61.33 14-94 14zm-198-286h370c-3.33-34-13-64.667-29-92-16-28-36.67-50.333-62-67s-54-25-86-25c-34 0-65 8-93 24-27.33 16-50 38-68 66-17.33 27.333-28 58.667-32 94zm736.83 286c-45.34 0-86.67-11.33-124-34-37.34-22.667-67-53.333-89-92-21.34-38.667-32-82-32-130s10.66-91.333 32-130c22-38.667 51.66-69.333 89-92 37.33-22.667 78.66-34 124-34 31.33 0 61.66 6.333 91 19 29.33 12 55.33 28.333 78 49v-266l44-11v711h-44v-59c-44.67 46-101 69-169 69zm0-42c36.66 0 69.66-7.333 99-22 30-15.333 53.33-35.333 70-60v-264c-17.34-23.333-41-42.667-71-58-30-16-62.67-24-98-24-37.34 0-71.34 9.667-102 29-30 18.667-54 44.333-72 77-17.34 32-26 68-26 108s8.66 76.333 26 109c18 32 42 57.667 72 77 30.66 18.667 64.66 28 102 28zm576.29 246c-32.67 0-65-4.67-97-14s-61.34-22.33-88-39l25-36c29.33 16.67 56 28.67 80 36 24.66 7.33 50.33 11 77 11 51.33 0 90.33-12.33 117-37 26.66-24.67 40-61.33 40-110v-84c-44.67 46-101 69-169 69-45.34 0-86.67-11.33-124-34-37.34-22.667-67-53.333-89-92-21.34-38.667-32-82-32-130s10.66-91.333 32-130c22-38.667 51.66-69.333 89-92 37.33-22.667 78.66-34 124-34 31.33 0 61.66 6.333 91 19 29.33 12 55.33 28.333 78 49v-58h44v515c0 62.67-17.34 110-52 142-34 32.67-82.67 49-146 49zm-15-246c36.66 0 69.66-7.333 99-22 30-15.333 53.33-35.333 70-60v-264c-17.34-23.333-41-42.667-71-58-30-16-62.67-24-98-24-37.34 0-71.34 9.667-102 29-30 18.667-54 44.333-72 77-17.34 32-26 68-26 108s8.66 76.333 26 109c18 32 42 57.667 72 77 30.66 18.667 64.66 28 102 28zm561.29 42c-45.34 0-86.67-11.33-124-34-37.34-22.667-67-53.333-89-92-21.34-38.667-32-82-32-130s10.33-91.333 31-130c21.33-38.667 50.33-69.333 87-92 36.66-22.667 77.66-34 123-34 42.66 0 80.66 11.333 114 34 33.33 22.667 59.66 53 79 91 20 37.333 30 79 30 125v18h-419c2 38 12 72.333 30 103 18 30 41.66 54 71 72 30 18 63 27 99 27 28 0 55.66-4.333 83-13 27.33-9.333 50.66-21.667 70-37l26 35c-26.67 19.333-55 33.67-85 43s-61.34 14-94 14zm-198-286h370c-3.34-34-13-64.667-29-92-16-28-36.67-50.333-62-67-25.34-16.667-54-25-86-25-34 0-65 8-93 24-27.34 16-50 38-68 66-17.34 27.333-28 58.667-32 94z" fill="#fff"/>
<path d="m408.87 304.23c-60.423 281.19-72.026 553.48-72.026 553.48l-52.163-164.71-76.752-55.512 200.94-333.26z" fill="#fff"/>
<path d="m0.59228 1167.4s78.043-230.41 78.043-580.6l184.66 133.54-262.7 447.06z" fill="#fff"/>
</svg>
